<svg xmlns:xlink="http://www.w3.org/1999/xlink"  xmlns="http://www.w3.org/2000/svg" width="114" height="26" fill="none"><g fill="#000"><use href="#a"/>
<path d="m16.116 9.729 2.592-5.638c.04-.089.172-.057.172.037v7.623a5.51 5.51 0 0 1-.504 2.303l-2.254 4.901c-.04.089-.172.112-.172-.037v-8.436a1.75 1.75 0 0 1 .166-.751v-.003z"/><use href="#b"/><use href="#c"/><use href="#a"/><use href="#b"/><use href="#c"/>
<path d="m38.773 15.297 1.55-1.702V7.769h-3.171l-5.205 5.013-5.208-5.013h-3.163v7.528h3.168v-4.303l4.474 4.303h1.461l4.474-4.303v4.303h1.618zm5.127 0h-3.687l6.855-7.525h3.311l6.855 7.525h-3.695l-1.418-1.567h-5.583l1.599-1.782 2.34-.014-1.747-1.931m10.569 5.294V9.545h-5.36l-1.587-1.776h15.801v1.776h-5.506v5.752h-3.349zm25.724 0V7.769h13.051v1.776h-9.702v1.106h9.373v1.713h-9.373v1.123h9.702v1.81H85.023zm14.431-4.647h10.209c.2 0 .364-.163.364-.364v-.372a.365.365 0 0 0-.364-.364H99.454V7.771h11.552c2.452 0 2.501 1.395 2.501 1.948v.656c0 2.343-2.916 1.991-2.916 1.991l3.409 2.93h-4.036l-3.515-2.93h-3.653v2.93h-3.348v-4.643l.006-.003zm-24.451 4.647V9.545h-5.68V7.769h14.532v1.776h-5.503v5.752h-3.349z"/></g><defs>
<path id="a" d="M18.698.127 14.59 9.062c-.1.223-.246.421-.43.584l-4.609 4.171c-.089.089-.18.029-.223-.011l-4.609-4.16a1.81 1.81 0 0 1-.43-.584L.181.127C.141.039.25-.042.325.024L9.38 8.197a.087.087 0 0 0 .12 0L18.555.024c.072-.066.183.014.143.103z"/>
<path id="b" d="M2.764 9.729.172 4.092C.132 4.003 0 4.034 0 4.129v7.623c0 .796.172 1.581.504 2.303l2.254 4.901c.043.1.166.115.172-.037v-8.436a1.75 1.75 0 0 0-.166-.751v-.003z"/>
<path id="c" d="M9.378 25.144c-2.627-2.062-4.171-3.741-4.171-3.741s-.61-.596-.61-1.386v-7.981c0-.112.074-.189.218-.06l4.529 4.079c.089.077.166.043.201.011l4.529-4.091c.14-.126.218-.052.218.06v7.981c0 .518-.221.968-.602 1.358 0 0-1.558 1.716-4.185 3.778-.06.049-.126-.006-.126-.006v-.003z"/></defs>
</svg>